HIERARCHY
ROOT Hips
{
	OFFSET 0.000000 0.000000 0.000000
	CHANNELS 6 Xposition Yposition Zposition Zrotation Yrotation Xrotation 
	JOINT LHipJoint
	{
		OFFSET 0.000000 0.000000 0.000000
		CHANNELS 3 Zrotation Yrotation Xrotation
		JOINT LeftUpLeg
		{
			OFFSET 1.363060 -1.794630 0.839290
			CHANNELS 3 Zrotation Yrotation Xrotation
			JOINT LeftLeg
			{
				OFFSET 2.448110 -6.726130 0.000000
				CHANNELS 3 Zrotation Yrotation Xrotation
				JOINT LeftFoot
				{
					OFFSET 2.562200 -7.039590 0.000000
					CHANNELS 3 Zrotation Yrotation Xrotation
					JOINT LeftToeBase
					{
						OFFSET 0.157640 -0.433110 2.322550
						CHANNELS 3 Zrotation Yrotation Xrotation
						End Site
						{
							OFFSET 0.000000 0.000000 0.000000
						}
					}
				}
			}
		}
	}
	JOINT RHipJoint
	{
		OFFSET 0.000000 0.000000 0.000000
		CHANNELS 3 Zrotation Yrotation Xrotation
		JOINT RightUpLeg
		{
			OFFSET -1.305520 -1.794630 0.839290
			CHANNELS 3 Zrotation Yrotation Xrotation
			JOINT RightLeg
			{
				OFFSET -2.542530 -6.985550 0.000000
				CHANNELS 3 Zrotation Yrotation Xrotation
				JOINT RightFoot
				{
					OFFSET -2.568260 -7.056230 0.000000
					CHANNELS 3 Zrotation Yrotation Xrotation
					JOINT RightToeBase
					{
						OFFSET -0.164730 -0.452590 2.363150
						CHANNELS 3 Zrotation Yrotation Xrotation
						End Site
						{
							OFFSET 0.000000 0.000000 0.000000
						}
					}
				}
			}
		}
	}
	JOINT LowerBack
	{
		OFFSET 0.000000 0.000000 0.000000
		CHANNELS 3 Zrotation Yrotation Xrotation
		JOINT Spine
		{
			OFFSET 0.028270 2.035590 -0.193380
			CHANNELS 3 Zrotation Yrotation Xrotation
			JOINT Spine1
			{
				OFFSET 0.056720 2.048850 -0.042750
				CHANNELS 3 Zrotation Yrotation Xrotation
				JOINT Neck
				{
					OFFSET 0.000000 0.000000 0.000000
					CHANNELS 3 Zrotation Yrotation Xrotation
					JOINT Neck1
					{
						OFFSET -0.054170 1.746240 0.172020
						CHANNELS 3 Zrotation Yrotation Xrotation
						JOINT Head
						{
							OFFSET 0.104070 1.761360 -0.123970
							CHANNELS 3 Zrotation Yrotation Xrotation
							End Site
							{
								OFFSET 0.000000 0.000000 0.000000
							}
						}
					}
				}
				JOINT LeftShoulder
				{
					OFFSET 0.000000 0.000000 0.000000
					CHANNELS 3 Zrotation Yrotation Xrotation
					JOINT LeftArm
					{
						OFFSET 3.362410 1.200890 -0.311210
						CHANNELS 3 Zrotation Yrotation Xrotation
						JOINT LeftForeArm
						{
							OFFSET 4.983000 -0.000000 -0.000000
							CHANNELS 3 Zrotation Yrotation Xrotation
							JOINT LeftHand
							{
								OFFSET 3.483560 -0.000000 -0.000000
								CHANNELS 3 Zrotation Yrotation Xrotation
								JOINT LeftFingerBase
								{
									OFFSET 0.000000 0.000000 0.000000
									CHANNELS 3 Zrotation Yrotation Xrotation
									JOINT LeftHandIndex1
									{
										OFFSET 0.715260 -0.000000 -0.000000
										CHANNELS 3 Zrotation Yrotation Xrotation
										End Site
										{
											OFFSET 0.000000 0.000000 0.000000
										}
									}
								}
								JOINT LThumb
								{
									OFFSET 0.000000 0.000000 0.000000
									CHANNELS 3 Zrotation Yrotation Xrotation
									End Site
									{
										OFFSET 0.000000 0.000000 0.000000
									}
								}
							}
						}
					}
				}
				JOINT RightShoulder
				{
					OFFSET 0.000000 0.000000 0.000000
					CHANNELS 3 Zrotation Yrotation Xrotation
					JOINT RightArm
					{
						OFFSET -3.136600 1.374050 -0.404650
						CHANNELS 3 Zrotation Yrotation Xrotation
						JOINT RightForeArm
						{
							OFFSET -5.241900 -0.000000 -0.000000
							CHANNELS 3 Zrotation Yrotation Xrotation
							JOINT RightHand
							{
								OFFSET -3.444170 -0.000000 -0.000000
								CHANNELS 3 Zrotation Yrotation Xrotation
								JOINT RightFingerBase
								{
									OFFSET 0.000000 0.000000 0.000000
									CHANNELS 3 Zrotation Yrotation Xrotation
									JOINT RightHandIndex1
									{
										OFFSET -0.622530 -0.000000 -0.000000
										CHANNELS 3 Zrotation Yrotation Xrotation
										End Site
										{
											OFFSET 0.000000 0.000000 0.000000
										}
									}
								}
								JOINT RThumb
								{
									OFFSET 0.000000 0.000000 0.000000
									CHANNELS 3 Zrotation Yrotation Xrotation
									End Site
									{
										OFFSET 0.000000 0.000000 0.000000
									}
								}
							}
						}
					}
				}
			}
		}
	}
}
MOTION
Frames: 4
Frame Time: 0.008333
-9.243815 16.791944 -2.124199 155.572355 74.487220 170.891623 -11.312316 3.182998 -1.485617 -2.852182 5.897034 -0.915589 -1.176470 1.357071 22.152653 0.464132 1.517539 9.043618 0.358200 -0.000000 -83.915200 8.945009 0.920503 1.226321 5.446220 -1.773705 -40.603591 1.517390 -0.340375 14.154182 -2.403073 -11.491794 2.657217 -3.420600 -0.000000 -18.766500 1.441090 -3.308471 1.619602 -0.695671 -3.474875 -2.120913 -7.496209 -3.448136 1.764251 11.197192 -6.103778 -5.088119 -4.055203 -0.322697 0.578427 0.000000 0.000000 0.000000 1.759071 5.567575 1.942481 -21.589019 -22.593475 -8.494427 -0.404721 -77.903158 0.064290 -10.443767 -0.901703 0.117742 0.150511 0.368506 0.000000 0.000000 0.000000 0.000000 0.000000 0.000000 0.000000 19.596478 -5.992273 1.302266 68.294203 -4.254235 -26.632392 3.666321 6.192922 0.006094 1.199163 3.260384 0.032361 0.083342 -0.049370 -0.000000 0.000000 0.000000 0.000000 0.000000 0.000000 0.000000 
-9.022404 16.803132 -2.101831 157.327167 74.670329 172.535780 -11.454131 3.153372 -1.474757 -1.901483 5.960352 -1.802084 -0.892425 1.527487 24.576668 0.572123 1.512615 11.427627 0.331600 0.000000 -85.335000 8.827740 0.758355 1.280263 5.944685 -0.787548 -40.437359 1.463408 -0.507742 15.911334 -2.502473 -11.819581 2.066282 -3.361700 -0.000000 -16.717000 2.133654 -3.192088 1.464796 -0.553700 -3.396707 -2.158508 -7.496691 -3.370040 1.783783 11.136098 -5.964572 -5.050851 -4.068239 -0.323884 0.589585 0.000000 0.000000 0.000000 1.506552 5.800757 1.977784 -22.774895 -21.828087 -7.660605 -0.458655 -77.543846 0.062493 -10.526029 -0.930235 0.119910 0.139861 0.354558 -0.000000 0.000000 0.000000 0.000000 0.000000 0.000000 0.000000 19.527688 -5.775815 1.255229 68.107579 -3.758129 -26.580312 3.690098 6.341641 0.006164 1.229135 3.274676 0.033466 0.083317 -0.050076 -0.000000 0.000000 0.000000 0.000000 0.000000 0.000000 0.000000 
-8.804828 16.818271 -2.078908 159.169620 74.958117 174.259958 -11.594926 3.094745 -1.489074 -0.956683 6.125846 -2.785889 -0.612015 1.678847 27.099354 0.719154 1.625014 13.911684 0.324100 0.000000 -85.502500 8.702441 0.605087 1.329063 6.538057 0.228162 -40.195309 1.433552 -0.648491 17.527777 -2.593265 -12.068915 1.232808 -3.225099 -0.000000 -14.670700 2.841527 -3.059249 1.349036 -0.408963 -3.302828 -2.191902 -7.489358 -3.276680 1.792469 11.076518 -5.780688 -5.007136 -4.070106 -0.324211 0.601705 0.000000 0.000000 0.000000 1.258781 6.036019 2.018101 -24.066110 -20.966192 -6.774026 -0.522845 -77.084094 0.060401 -10.594661 -0.945947 0.120685 0.127853 0.339222 -0.000000 0.000000 0.000000 0.000000 0.000000 0.000000 0.000000 19.397562 -5.496260 1.215571 67.963201 -3.162685 -26.484215 3.713299 6.521169 0.006318 1.313449 3.317754 0.036373 0.082937 -0.051194 -0.000000 0.000000 0.000000 0.000000 0.000000 0.000000 0.000000 
-8.591281 16.836564 -2.054155 160.915786 75.329844 175.884222 -11.721124 3.010272 -1.519842 -0.107300 6.331406 -3.837265 -0.351885 1.809002 29.696488 0.903862 1.961530 16.350422 0.392700 0.000000 -84.215000 8.580846 0.471051 1.364732 7.176469 1.204380 -39.870863 1.422497 -0.763574 18.990747 -2.676535 -12.242524 0.183367 -3.015500 -0.000001 -12.692400 3.490093 -2.918156 1.278246 -0.276225 -3.196938 -2.219887 -7.472527 -3.171902 1.787067 11.036507 -5.560406 -4.956079 -4.061653 -0.323779 0.615041 0.000000 0.000000 0.000000 1.066822 6.242545 2.060568 -25.485554 -19.969154 -5.855168 -0.596969 -76.524850 0.058062 -10.658893 -0.947890 0.119966 0.114954 0.322551 0.000000 0.000000 0.000000 0.000000 0.000000 0.000000 0.000000 19.232026 -5.163755 1.183673 67.866098 -2.496109 -26.204190 3.734724 6.811826 0.006498 1.440304 3.359828 0.040683 0.082201 -0.052414 -0.000000 0.000000 0.000000 0.000000 0.000000 0.000000 0.000000 
